<?xml version="1.0" standalone="no"?>
<!DOCTYPE svg PUBLIC "-//W3C//DTD SVG 20010904//EN"
 "http://www.w3.org/TR/2001/REC-SVG-20010904/DTD/svg10.dtd">
<svg version="1.0" xmlns="http://www.w3.org/2000/svg"
 width="340.000000pt" height="402.000000pt" viewBox="0 0 340.000000 402.000000"
 preserveAspectRatio="xMidYMid meet">
<metadata>
Created by potrace 1.15, written by Peter Selinger 2001-2017
</metadata>
<g transform="translate(0.000000,402.000000) scale(0.100000,-0.100000)"
fill="#000000" stroke="none">
<path d="M3262 3595 c4 -5 -10 -21 -31 -36 l-39 -29 6 -572 5 -573 -28 -55
c-15 -30 -56 -84 -91 -121 -58 -60 -64 -69 -64 -109 0 -77 -31 -253 -62 -349
-74 -230 -182 -403 -377 -603 l-76 -78 125 0 125 0 60 71 c193 226 321 499
370 783 8 49 15 99 15 112 0 13 3 24 8 24 9 0 54 -30 62 -41 11 -15 14 173 14
860 1 627 -1 715 -14 719 -8 3 -12 1 -8 -3z"/>
<path d="M1300 3514 c-25 -2 -103 -9 -175 -14 -247 -21 -493 -62 -662 -112
l-73 -21 -2 -606 -3 -606 -58 54 c-36 34 -68 77 -87 115 l-29 61 -1 -120 c0
-400 83 -697 277 -989 62 -93 65 -100 48 -113 -11 -7 -22 -13 -27 -13 -4 0 -8
-7 -8 -15 0 -8 5 -15 10 -15 6 0 9 -4 8 -8 -2 -5 12 -23 30 -41 17 -18 30 -36
27 -41 -3 -4 2 -11 11 -14 10 -4 13 -2 8 6 -4 7 -3 8 5 4 6 -4 9 -11 7 -15 -7
-11 59 -73 68 -64 4 4 4 -1 0 -11 -5 -13 -4 -17 3 -13 6 4 22 -5 34 -19 46
-49 260 -204 386 -279 130 -77 366 -197 458 -231 l50 -19 -75 -2 c-621 -19
-1040 -77 -1028 -142 8 -41 161 -80 412 -105 777 -79 1972 -16 1994 105 10 53
-287 106 -723 129 -232 12 -385 14 -405 7 -8 -3 -27 -8 -42 -11 -23 -5 -27 -3
-30 20 -3 22 -15 30 -106 64 -339 128 -706 366 -908 590 l-36 40 127 0 128 0
-105 108 c-102 106 -216 262 -257 352 -14 31 -20 65 -20 110 l1 65 15 -36 c14
-34 19 -37 91 -54 42 -11 84 -27 92 -36 22 -25 52 -28 56 -5 1 10 7 23 13 29
12 12 84 13 101 2 13 -8 13 -48 -1 -62 -7 -7 -3 -10 16 -10 19 0 23 2 14 8
-11 7 -11 9 1 9 13 0 13 1 0 11 -17 12 96 7 255 -11 55 -6 115 -9 133 -5 28 5
32 3 32 -17 0 -30 15 -54 24 -39 4 6 2 11 -3 11 -6 0 -11 7 -11 15 0 8 4 15 9
15 5 0 12 13 16 30 4 16 11 33 17 36 6 4 8 2 5 -4 -5 -6 0 -8 13 -5 11 3 20
12 20 19 0 8 9 14 21 14 13 0 18 -4 13 -12 -5 -8 3 -9 28 -5 21 3 40 1 47 -6
16 -16 14 -57 -4 -77 -18 -20 -28 -19 201 -26 211 -7 349 9 446 53 84 37 98
59 98 150 l0 73 -27 -6 c-16 -4 -54 -15 -85 -24 -32 -10 -55 -14 -52 -9 9 15
-4 11 -68 -21 -61 -30 -91 -39 -72 -20 19 19 155 69 171 63 10 -4 14 -2 10 4
-5 7 1 9 15 5 13 -3 19 -1 15 5 -4 6 4 8 21 6 21 -4 24 -2 12 6 -11 8 -7 10
20 5 28 -4 32 -3 20 6 -12 9 -5 11 34 7 27 -3 44 -2 39 2 -6 3 -9 16 -8 29 2
21 1 21 -17 5 -17 -16 -18 -8 -18 225 0 132 -4 252 -9 265 -16 41 -56 47 -311
47 -295 0 -283 5 -289 -129 -6 -164 1 -171 150 -171 l109 0 0 -139 0 -138 -46
-7 c-339 -46 -495 109 -495 493 0 206 31 310 115 396 79 81 136 98 301 92 111
-4 143 -9 217 -35 94 -33 103 -32 151 23 34 38 79 144 73 170 -14 54 -117 101
-288 131 -127 22 -352 15 -456 -15 -239 -69 -379 -220 -445 -479 -19 -76 -22
-112 -21 -292 1 -188 3 -213 27 -302 14 -54 43 -130 64 -170 41 -80 142 -190
193 -211 l31 -14 -40 -12 c-51 -15 -61 -10 -139 74 -143 152 -213 404 -199
710 20 420 192 665 532 757 67 17 109 21 255 22 184 1 235 -6 372 -50 89 -29
163 -86 173 -134 14 -66 -63 -219 -134 -267 -44 -29 -77 -29 -168 2 -98 34
-221 49 -300 36 -159 -25 -230 -118 -255 -332 -21 -185 16 -369 90 -451 59
-65 101 -81 225 -86 l107 -4 0 86 0 86 -82 0 c-103 0 -138 18 -163 84 -24 62
-18 226 10 273 33 56 43 58 334 58 290 0 304 -2 345 -58 20 -27 21 -41 21
-273 l0 -244 23 0 c16 0 26 -7 29 -20 4 -14 9 -17 17 -11 7 6 60 4 146 -5 74
-9 149 -17 167 -19 45 -5 145 -27 164 -36 14 -7 20 5 38 66 29 95 39 167 47
338 5 97 11 137 19 137 10 0 14 122 17 528 5 456 3 529 -9 539 -21 16 -242 68
-393 93 -279 44 -400 52 -845 55 -236 1 -450 1 -475 -1z m660 -1814 c25 -25
25 -31 0 -63 -22 -27 -74 -43 -107 -33 -24 8 -47 65 -32 82 6 7 18 10 26 7 10
-4 14 -2 10 4 -18 28 76 30 103 3z"/>
</g>
</svg>
